<svg xmlns="http://www.w3.org/2000/svg" xmlns:xlink="http://www.w3.org/1999/xlink" preserveAspectRatio="xMidYMid" width="512" height="512" viewBox="0 0 512 512">
  <defs>
    <style>
      .cls-1 {
        fill: #000;
        fill-rule: evenodd;
      }
    </style>
  </defs>
  <path d="M508.836,479.083 L479.079,508.843 C477.085,510.855 474.371,511.991 471.538,512.000 C468.711,512.000 465.998,510.876 463.998,508.875 L397.048,441.910 C392.884,437.744 392.884,430.992 397.048,426.827 L404.382,419.492 L381.902,397.010 C361.183,414.226 335.019,423.775 307.860,423.776 C243.858,423.778 191.973,371.893 191.970,307.887 C191.968,243.881 243.849,191.992 307.851,191.989 C338.590,191.988 368.071,204.201 389.805,225.941 C432.509,268.656 434.886,336.397 396.985,381.925 L419.466,404.407 L426.806,397.067 C428.806,395.067 431.517,393.943 434.346,393.942 C437.174,393.942 439.887,395.067 441.886,397.067 L508.836,464.000 C513.000,468.165 513.000,474.917 508.836,479.083 ZM402.380,307.925 C402.388,282.853 392.440,258.804 374.724,241.066 C357.040,223.253 332.959,213.265 307.860,213.333 C255.640,213.315 213.293,255.637 213.275,307.861 C213.257,360.085 255.576,402.435 307.796,402.453 C360.016,402.471 402.362,360.149 402.380,307.925 ZM434.345,419.691 L419.669,434.368 L471.537,486.251 L486.213,471.574 L434.345,419.691 ZM309.309,256.000 L309.309,234.667 C350.524,234.714 383.924,268.116 383.970,309.333 L362.638,309.333 C362.603,279.893 338.748,256.035 309.309,256.000 ZM405.303,32.000 C405.303,26.109 400.528,21.333 394.637,21.333 L31.997,21.333 C26.107,21.333 21.331,26.109 21.331,32.000 L21.331,288.000 C21.331,293.891 26.107,298.667 31.997,298.667 L170.654,298.667 L170.654,320.000 L149.322,320.000 L149.322,362.667 L191.985,362.667 L191.985,384.000 L106.659,384.000 L106.659,362.667 L127.990,362.667 L127.990,320.000 L31.997,320.000 C14.326,320.000 -0.000,305.673 -0.000,288.000 L-0.000,32.000 C-0.000,14.327 14.326,0.000 31.997,0.000 L394.637,0.000 C412.309,0.000 426.635,14.327 426.635,32.000 L426.635,224.000 L405.303,224.000 L405.303,32.000 Z" class="cls-1"/>
</svg>
